<svg width="36" height="36" viewBox="0 0 36 36" fill="none" xmlns="http://www.w3.org/2000/svg">
<path fill-rule="evenodd" clip-rule="evenodd" d="M9.00532 4.26327C9.425 3.75523 10.4486 3.14521 12.1964 2.68019C13.8672 2.23564 15.9118 2.00002 18 2C20.0883 1.99998 22.1328 2.23555 23.8036 2.68009C25.5514 3.14508 26.5749 3.75512 26.9946 4.2632C27.1197 4.41467 27.3532 4.85981 27.5588 5.79302C27.7533 6.67602 27.8819 7.7996 27.9476 9.10969C28.0787 11.726 27.9496 14.8698 27.719 17.88C27.6098 19.3057 27.565 19.8204 27.4069 20.4493C26.6861 23.3183 23.9147 25.8856 20.999 26.3851C20.3658 26.4936 19.7273 26.5 18 26.5C16.2727 26.5 15.6342 26.4936 15.001 26.3851C12.0853 25.8856 9.3139 23.3184 8.59308 20.4493C8.43506 19.8204 8.39023 19.3057 8.281 17.88C8.05036 14.8697 7.92127 11.7259 8.05245 9.10957C8.11813 7.79948 8.24673 6.67591 8.44123 5.79293C8.64678 4.85974 8.88025 4.41467 9.00532 4.26327ZM7.46339 2.98951C10.756 -0.996306 25.244 -0.996698 28.5366 2.98951C29.1335 3.71213 29.514 5.0111 29.7369 6.65371C34.6737 7.5446 36 9.50942 36 13.5C36 17.5628 34.6252 19.5259 29.4649 20.3936C29.4317 20.5742 29.393 20.7521 29.3466 20.9367C28.4328 24.5739 25.0332 27.7231 21.3367 28.3564C20.4985 28.5 19.6657 28.5 18 28.5C16.3343 28.5 15.5015 28.5 14.6633 28.3564C10.9669 27.7231 7.56719 24.5739 6.65336 20.9367C6.607 20.7521 6.56835 20.5742 6.53509 20.3936C1.37478 19.5259 0 17.5628 0 13.5C0 9.50942 1.32626 7.54461 6.26308 6.65371C6.486 5.01106 6.86648 3.71208 7.46339 2.98951ZM6.07007 8.72921C5.31857 8.88856 4.70776 9.07288 4.21061 9.28002C3.22019 9.69269 2.76158 10.1596 2.49269 10.6637C2.18835 11.2343 2 12.0914 2 13.5C2 14.9086 2.18835 15.7656 2.49269 16.3362C2.76158 16.8403 3.22019 17.3072 4.21061 17.7199C4.7594 17.9486 5.44671 18.1494 6.30887 18.3196C6.30175 18.2273 6.29443 18.1318 6.28685 18.0328C6.04564 14.8846 5.90838 11.5263 6.07007 8.72921ZM29.6911 18.3196C30.5533 18.1494 31.2406 17.9486 31.7894 17.7199C32.7798 17.3072 33.2384 16.8403 33.5073 16.3362C33.8116 15.7656 34 14.9086 34 13.5C34 12.0914 33.8116 11.2343 33.5073 10.6637C33.2384 10.1596 32.7798 9.69269 31.7894 9.28002C31.2922 9.07288 30.6814 8.88856 29.9299 8.72921C30.0916 11.5264 29.9544 14.8846 29.7132 18.0328C29.7056 18.1318 29.6983 18.2273 29.6911 18.3196Z" fill="#605543"/>
<path d="M18 28.5V34.5H22.5H13.5" stroke="#605543" stroke-width="2" stroke-linecap="round" stroke-linejoin="round"/>
</svg>
