<svg width="27" height="22" viewBox="0 0 27 22" fill="none" xmlns="http://www.w3.org/2000/svg">
<path d="M23.166 3.24033C22.853 2.83956 22.3007 2.79083 21.9324 3.13149C21.5641 3.47212 21.5194 4.07319 21.8324 4.47396L21.8337 4.47573L21.8408 4.48479L21.8705 4.52361C21.897 4.55834 21.9361 4.61012 21.9849 4.67598C22.0827 4.80796 22.2182 4.99505 22.3676 5.21364C22.6743 5.66221 23.0096 6.19984 23.2122 6.65405C23.9052 8.20725 24.2496 9.21384 24.2496 11C24.2496 12.7862 23.9052 13.7927 23.2122 15.346C23.0096 15.8002 22.6743 16.3378 22.3676 16.7864C22.2182 17.005 22.0827 17.192 21.9849 17.324C21.9361 17.3899 21.897 17.4417 21.8705 17.4764L21.8408 17.5152L21.8337 17.5243L21.8322 17.5263C21.5193 17.927 21.5642 18.5279 21.9324 18.8685C22.3007 19.2092 22.853 19.1604 23.166 18.7597L22.4992 18.1429C23.166 18.7597 23.1666 18.759 23.1666 18.7589L23.1676 18.7577L23.1706 18.7539L23.1808 18.7406L23.2175 18.6928C23.2488 18.6518 23.2932 18.593 23.3477 18.5195C23.4564 18.3727 23.6062 18.1658 23.772 17.9233C24.0958 17.4497 24.5107 16.7968 24.7869 16.1779C25.5403 14.4892 26 13.186 26 11C26 8.81397 25.5403 7.51081 24.7869 5.82214C24.5107 5.20315 24.0958 4.55031 23.772 4.0767C23.6062 3.83421 23.4564 3.62728 23.3477 3.48052C23.2932 3.40701 23.2488 3.34823 23.2175 3.30725L23.1808 3.2594L23.1706 3.24613L23.1676 3.24228L23.166 3.24033ZM23.166 3.24033L22.4992 3.85714C23.166 3.24033 23.166 3.24026 23.166 3.24033ZM21.4401 7.1724C21.1892 6.72279 20.6509 6.57961 20.2378 6.85259C19.8246 7.12554 19.693 7.71123 19.9438 8.16082L19.9454 8.16377L19.954 8.17948C19.962 8.19402 19.974 8.21635 19.9892 8.2451C20.0198 8.30283 20.0624 8.38515 20.1093 8.48133C20.2076 8.68267 20.3077 8.90929 20.3652 9.08982C20.5875 9.78724 20.692 10.2157 20.692 11C20.692 11.7843 20.5875 12.2128 20.3652 12.9102C20.3077 13.0907 20.2076 13.3173 20.1093 13.5187C20.0624 13.6148 20.0198 13.6972 19.9892 13.7549C19.974 13.7837 19.962 13.806 19.954 13.8205L19.9454 13.8362L19.9439 13.8391C19.6934 14.2886 19.8247 14.8745 20.2378 15.1474C20.6509 15.4204 21.1892 15.2772 21.4401 14.8276M21.4401 7.1724C21.44 7.17233 21.4401 7.1724 20.692 7.66667L21.4401 7.1724ZM21.4401 7.1724L21.4422 7.17619L21.4462 7.18351L21.4598 7.20825C21.4711 7.22905 21.4869 7.25831 21.5061 7.2946C21.5444 7.36695 21.5969 7.4685 21.655 7.5875C21.7669 7.81651 21.9169 8.14544 22.019 8.46573C22.2788 9.28119 22.4424 9.93058 22.4424 11C22.4424 12.0694 22.2788 12.7188 22.019 13.5343C21.9169 13.8546 21.7669 14.1835 21.655 14.4125C21.5969 14.5315 21.5444 14.633 21.5061 14.7054C21.4869 14.7417 21.4711 14.771 21.4598 14.7917L21.4462 14.8165L21.4422 14.8238L21.4401 14.8276M21.4401 14.8276L20.7535 14.374C21.4401 14.8276 21.44 14.8277 21.4401 14.8276ZM1 11.0014C1 14.4283 2.37684 16.7137 7.30783 16.7137C10.0508 16.7137 10.8518 18.04 11.5627 19.217C12.1298 20.156 12.6395 21 14.0319 21C17.1698 21 18.0664 16.7193 18.0664 11.0014C18.0664 5.28351 17.1698 1 14.0319 1C12.6025 1 12.0103 1.88887 11.3654 2.8568C10.5946 4.01369 9.74853 5.28351 7.30783 5.28351C2.82511 5.28351 1 7.5745 1 11.0014Z" stroke="#572908" stroke-linecap="round" stroke-linejoin="round"/>
</svg>
