<svg width="22" height="22" viewBox="0 0 22 22" fill="none" xmlns="http://www.w3.org/2000/svg">
<path fill-rule="evenodd" clip-rule="evenodd" d="M11.026 1C10.6087 1 10.2972 1.22736 10.1204 1.38757C9.92598 1.56381 9.75471 1.78686 9.60682 2.00984C9.30823 2.46003 9.01534 3.0482 8.7499 3.64703C8.21498 4.8538 7.73199 6.24136 7.47955 6.99884C7.47585 7.00995 7.46494 7.01869 7.45174 7.01914C6.66081 7.04587 5.2113 7.11682 3.94791 7.30213C3.32376 7.39367 2.69517 7.5199 2.20439 7.70267C1.96274 7.79267 1.6992 7.91612 1.48182 8.09522C1.26181 8.27648 1 8.59416 1 9.05228C1 9.36912 1.11986 9.64959 1.22835 9.84974C1.34464 10.0643 1.49833 10.2769 1.66272 10.4776C1.99222 10.8801 2.4279 11.3108 2.87835 11.7205C3.78355 12.5438 4.83182 13.3568 5.42824 13.8063C5.43765 13.8134 5.44203 13.8252 5.43814 13.838C5.20909 14.59 4.81129 15.9661 4.55824 17.2424C4.43255 17.8764 4.33549 18.5199 4.32091 19.0634C4.31366 19.3338 4.32557 19.6136 4.37962 19.8703C4.42996 20.1093 4.54058 20.4448 4.8237 20.695C5.14145 20.9759 5.52388 21.0131 5.78868 20.9967C6.05946 20.98 6.33065 20.9016 6.57233 20.8104C7.06037 20.6261 7.61127 20.3179 8.13951 19.9851C9.20664 19.3127 10.3366 18.44 10.9792 17.9268C10.9908 17.9175 11.0079 17.9173 11.0201 17.927C11.6626 18.4406 12.7935 19.3139 13.8686 19.9867C14.401 20.3199 14.9577 20.6282 15.4541 20.8122C15.7006 20.9035 15.9745 20.9805 16.2478 20.9968C16.516 21.0129 16.8878 20.9752 17.2052 20.7147C17.5025 20.4706 17.626 20.1352 17.6834 19.8865C17.7437 19.6246 17.7577 19.3402 17.751 19.0678C17.7376 18.5203 17.6355 17.8743 17.5032 17.2405C17.2368 15.964 16.8152 14.5875 16.5713 13.8323C16.567 13.8189 16.5715 13.8064 16.5813 13.7991C17.1807 13.3471 18.2267 12.5352 19.1289 11.714C19.5778 11.3053 20.0118 10.8757 20.3399 10.4744C20.5037 10.2742 20.6568 10.0621 20.7726 9.84799C20.8807 9.64818 21 9.36837 21 9.05228C21 8.59465 20.7387 8.27713 20.5189 8.09581C20.3018 7.9167 20.0385 7.79325 19.7972 7.70326C19.3071 7.52051 18.6794 7.39428 18.056 7.3027C16.7942 7.11734 15.3459 7.04619 14.5532 7.0193C14.5398 7.01885 14.5291 7.01015 14.5255 6.99894C14.2787 6.2392 13.8079 4.85284 13.2838 3.64773C13.0237 3.04981 12.736 2.4622 12.4412 2.0122C12.2952 1.78933 12.1254 1.56585 11.9317 1.38904C11.755 1.22785 11.4439 1 11.026 1Z" fill="#AC7349" stroke="#AC7349" stroke-linecap="round" stroke-linejoin="round"/>
</svg>
