<svg width="25" height="20" viewBox="0 0 25 20" fill="none" xmlns="http://www.w3.org/2000/svg">
<path d="M6.30783 15.7137C1.37684 15.7137 0 13.4283 0 10.0014C0 6.5745 1.82511 4.28351 6.30783 4.28351C8.74853 4.28351 9.59457 3.01369 10.3654 1.8568C11.0103 0.888874 11.6025 0 13.0319 0C16.1698 0 17.0664 4.28351 17.0664 10.0014C17.0664 15.7193 16.1698 20 13.0319 20C11.6395 20 11.1298 19.156 10.5627 18.217C9.85177 17.04 9.05075 15.7137 6.30783 15.7137Z" fill="#75370A"/>
<path d="M20.9324 2.13149C21.3007 1.79083 21.853 1.83956 22.166 2.24033L21.4992 2.85714C22.166 2.24033 22.166 2.24026 22.166 2.24033L22.1676 2.24228L22.1706 2.24613L22.1808 2.2594L22.2175 2.30725C22.2488 2.34823 22.2932 2.40701 22.3477 2.48052C22.4564 2.62728 22.6062 2.83421 22.772 3.0767C23.0958 3.55031 23.5107 4.20315 23.7869 4.82214C24.5403 6.51081 25 7.81397 25 10C25 12.186 24.5403 13.4892 23.7869 15.1779C23.5107 15.7968 23.0958 16.4497 22.772 16.9233C22.6062 17.1658 22.4564 17.3727 22.3477 17.5195C22.2932 17.593 22.2488 17.6518 22.2175 17.6928L22.1808 17.7406L22.1706 17.7539L22.1676 17.7577L22.1666 17.7589C22.1666 17.759 22.166 17.7597 21.4992 17.1429L22.166 17.7597C21.853 18.1604 21.3007 18.2092 20.9324 17.8685C20.5642 17.5279 20.5193 16.927 20.8322 16.5263L20.8337 16.5243L20.8408 16.5152L20.8705 16.4764C20.897 16.4417 20.9361 16.3899 20.9849 16.324C21.0827 16.192 21.2182 16.005 21.3676 15.7864C21.6743 15.3378 22.0096 14.8002 22.2122 14.346C22.9052 12.7927 23.2496 11.7862 23.2496 10C23.2496 8.21384 22.9052 7.20725 22.2122 5.65405C22.0096 5.19984 21.6743 4.66221 21.3676 4.21364C21.2182 3.99505 21.0827 3.80796 20.9849 3.67598C20.9361 3.61012 20.897 3.55834 20.8705 3.52361L20.8408 3.48479L20.8337 3.47573L20.8324 3.47396C20.5194 3.07319 20.5641 2.47212 20.9324 2.13149Z" fill="#75370A"/>
<path d="M20.4401 6.1724C20.1892 5.72279 19.6509 5.57961 19.2378 5.85259C18.8246 6.12554 18.693 6.71123 18.9438 7.16082L18.9454 7.16377L18.954 7.17948C18.962 7.19402 18.974 7.21635 18.9892 7.2451C19.0198 7.30283 19.0624 7.38515 19.1093 7.48133C19.2076 7.68267 19.3077 7.90929 19.3652 8.08982C19.5875 8.78724 19.692 9.21573 19.692 10C19.692 10.7843 19.5875 11.2128 19.3652 11.9102C19.3077 12.0907 19.2076 12.3173 19.1093 12.5187C19.0624 12.6148 19.0198 12.6972 18.9892 12.7549C18.974 12.7837 18.962 12.806 18.954 12.8205L18.9454 12.8362L18.9439 12.8391C18.6934 13.2886 18.8247 13.8745 19.2378 14.1474C19.6509 14.4204 20.1892 14.2772 20.4401 13.8276L19.7535 13.374C20.4401 13.8276 20.44 13.8277 20.4401 13.8276L20.4422 13.8238L20.4462 13.8165L20.4598 13.7917C20.4711 13.771 20.4869 13.7417 20.5061 13.7054C20.5444 13.633 20.5969 13.5315 20.655 13.4125C20.7669 13.1835 20.9169 12.8546 21.019 12.5343C21.2788 11.7188 21.4424 11.0694 21.4424 10C21.4424 8.93058 21.2788 8.28119 21.019 7.46573C20.9169 7.14544 20.7669 6.81651 20.655 6.5875C20.5969 6.4685 20.5444 6.36695 20.5061 6.2946C20.4869 6.25831 20.4711 6.22905 20.4598 6.20825L20.4462 6.18351L20.4422 6.17619L20.4401 6.1724C20.44 6.17233 20.4401 6.1724 19.692 6.66667L20.4401 6.1724Z" fill="#75370A"/>
</svg>
