<svg width="30" height="30" viewBox="0 0 30 30" fill="none" xmlns="http://www.w3.org/2000/svg">
<path fill-rule="evenodd" clip-rule="evenodd" d="M6.55583 22.5299C6.59129 22.6988 6.48311 22.8644 6.31421 22.8999C5.17163 23.1398 4.26436 23.4263 3.65047 23.7367C3.34305 23.8922 3.12492 24.046 2.9875 24.1901C2.85139 24.3328 2.8125 24.4458 2.8125 24.5312C2.8125 24.6134 2.84834 24.7206 2.97183 24.8556C3.0969 24.9923 3.29628 25.1392 3.57929 25.2889C4.14473 25.5879 4.9835 25.8668 6.04632 26.1045C8.16691 26.5789 11.1117 26.875 14.375 26.875C17.6383 26.875 20.5831 26.5789 22.7037 26.1045C23.7665 25.8668 24.6053 25.5879 25.1707 25.2889C25.4537 25.1392 25.6531 24.9923 25.7782 24.8556C25.9017 24.7206 25.9375 24.6134 25.9375 24.5312C25.9375 24.4458 25.8986 24.3328 25.7625 24.1901C25.6251 24.046 25.407 23.8922 25.0995 23.7367C24.4856 23.4263 23.5784 23.1398 22.4358 22.8999C22.2669 22.8644 22.1587 22.6988 22.1942 22.5299C22.2296 22.3609 22.3953 22.2528 22.5642 22.2882C23.7298 22.5329 24.6975 22.833 25.3816 23.179C25.7232 23.3518 26.0097 23.5437 26.2148 23.7587C26.4212 23.9751 26.5625 24.2347 26.5625 24.5312C26.5625 24.8158 26.4322 25.0667 26.2393 25.2775C26.048 25.4866 25.7808 25.6733 25.4629 25.8414C24.8265 26.178 23.9262 26.4715 22.8401 26.7144C20.6628 27.2015 17.6701 27.5 14.375 27.5C11.0799 27.5 8.0872 27.2015 5.90989 26.7144C4.82377 26.4715 3.92348 26.178 3.2871 25.8414C2.96921 25.6733 2.70198 25.4866 2.51068 25.2775C2.31781 25.0667 2.1875 24.8158 2.1875 24.5312C2.1875 24.2347 2.32884 23.9751 2.5352 23.7587C2.74025 23.5437 3.02684 23.3518 3.3684 23.179C4.05246 22.833 5.0202 22.5329 6.18579 22.2882C6.3547 22.2528 6.52037 22.3609 6.55583 22.5299Z" fill="#AC7349"/>
<path fill-rule="evenodd" clip-rule="evenodd" d="M23.5967 20.2242C23.5098 20.0819 23.4834 19.9108 23.5233 19.749C23.6144 19.3797 23.6769 18.9955 23.7128 18.6035C23.7297 18.4193 23.8274 18.252 23.9795 18.1467C24.1317 18.0414 24.3226 18.009 24.501 18.058C24.6592 18.1016 24.8264 18.125 25 18.125C26.0356 18.125 26.875 17.2855 26.875 16.25C26.875 15.2145 26.0356 14.375 25 14.375C24.8372 14.375 24.6801 14.3956 24.5308 14.434C24.3437 14.4822 24.1448 14.4411 23.9921 14.3227C23.8394 14.2043 23.75 14.022 23.75 13.8288V12.5518C23.75 12.2466 23.9705 11.986 24.2716 11.9355C24.5089 11.8957 24.7523 11.875 25 11.875C27.4163 11.875 29.375 13.8338 29.375 16.25C29.375 18.6662 27.4163 20.625 25 20.625C24.6516 20.625 24.3119 20.5841 23.9857 20.5067C23.8236 20.4682 23.6835 20.3665 23.5967 20.2242ZM24.9546 18.7496C24.7405 18.7458 24.533 18.7151 24.3352 18.6606C24.316 18.8705 24.2895 19.0792 24.2555 19.2856C24.2286 19.4496 24.1968 19.6121 24.1601 19.7727C24.1505 19.8148 24.1405 19.8568 24.1302 19.8986C24.3312 19.9464 24.5385 19.9779 24.7507 19.9918C24.8331 19.9973 24.9162 20 25 20C27.0711 20 28.75 18.3211 28.75 16.25C28.75 14.1789 27.0711 12.5 25 12.5C24.7871 12.5 24.5783 12.5177 24.375 12.5518V13.8288C24.5748 13.7773 24.7842 13.75 25 13.75C26.3807 13.75 27.5 14.8693 27.5 16.25C27.5 17.6307 26.3807 18.75 25 18.75C24.9849 18.75 24.9697 18.7499 24.9546 18.7496Z" fill="#AC7349"/>
<path fill-rule="evenodd" clip-rule="evenodd" d="M4.6875 9.6875C4.86009 9.6875 5 9.82741 5 10V17.8152C5 19.9965 5.75441 22.1081 7.64455 23.1107C9.18993 23.9305 11.4165 24.6875 14.375 24.6875C17.3335 24.6875 19.5601 23.9305 21.1055 23.1107C22.9956 22.1081 23.75 19.9965 23.75 17.8152V10C23.75 9.82741 23.8899 9.6875 24.0625 9.6875C24.2351 9.6875 24.375 9.82741 24.375 10V17.8152C24.375 20.1091 23.5798 22.5056 21.3983 23.6629C19.7713 24.526 17.4449 25.3125 14.375 25.3125C11.3051 25.3125 8.9787 24.526 7.35166 23.6629C5.17016 22.5056 4.375 20.1091 4.375 17.8152V10C4.375 9.82741 4.51491 9.6875 4.6875 9.6875Z" fill="#AC7349"/>
<path fill-rule="evenodd" clip-rule="evenodd" d="M5.625 11.4873V17.9473C5.625 19.6255 6.18034 21.2998 7.59628 22.2007C9.03144 23.1138 11.2698 24.0626 14.375 24.0626C17.4802 24.0626 19.7186 23.1138 21.1537 22.2007C22.5697 21.2998 23.125 19.6255 23.125 17.9473V11.4873C21.7707 11.8969 18.3637 12.1876 14.375 12.1876C10.3863 12.1876 6.97932 11.8969 5.625 11.4873Z" fill="#FFE7CB"/>
<path d="M21.1537 22.2007C22.5697 21.2998 23.125 19.6255 23.125 17.9473V11.4873C22.3948 11.7082 21.068 11.8944 19.375 12.0192V23.1197C20.0656 22.8362 20.6577 22.5163 21.1537 22.2007Z" fill="#F3D4AF"/>
<path d="M7.59628 22.2007C6.18034 21.2998 5.625 19.6255 5.625 17.9473V11.4873C6.21428 11.6655 7.19217 11.8213 8.4375 11.9403V22.6852C8.13151 22.5262 7.85122 22.3629 7.59628 22.2007Z" fill="#FFF3E4"/>
<path d="M5.625 14.9248V17.9473C5.625 19.6255 6.18034 21.2998 7.59628 22.2007C9.03144 23.1138 11.2698 24.0626 14.375 24.0626C17.4802 24.0626 19.7186 23.1138 21.1537 22.2007C22.5697 21.2998 23.125 19.6255 23.125 17.9473V14.9248C21.7707 15.3344 18.3637 15.6251 14.375 15.6251C10.3863 15.6251 6.97932 15.3344 5.625 14.9248Z" fill="#75370A"/>
<path d="M21.1537 22.2007C22.5697 21.2998 23.125 19.6255 23.125 17.9473V14.9248C22.3948 15.1457 21.068 15.3319 19.375 15.4567V23.1197C20.0656 22.8362 20.6577 22.5163 21.1537 22.2007Z" fill="#572908"/>
<path d="M7.59628 22.2007C6.18034 21.2998 5.625 19.6255 5.625 17.9473V14.9248C6.21428 15.103 7.19217 15.2588 8.4375 15.3778V22.6852C8.13151 22.5262 7.85122 22.3629 7.59628 22.2007Z" fill="#8E4917"/>
<path fill-rule="evenodd" clip-rule="evenodd" d="M21.0766 11.2379C19.3493 11.4395 16.9802 11.5625 14.375 11.5625C11.7698 11.5625 9.40075 11.4395 7.67345 11.2379C6.814 11.1377 6.09066 11.0155 5.57055 10.872C5.31535 10.8016 5.07278 10.7165 4.88091 10.6071C4.78512 10.5525 4.67219 10.4753 4.57699 10.3659C4.47825 10.2525 4.375 10.0752 4.375 9.84375C4.375 9.61232 4.47825 9.43499 4.57699 9.32156C4.67219 9.21219 4.78512 9.13498 4.88091 9.08037C5.07278 8.97098 5.31535 8.8859 5.57055 8.81551C6.09066 8.67205 6.814 8.54983 7.67345 8.44956C9.40075 8.24804 11.7698 8.125 14.375 8.125C16.9802 8.125 19.3493 8.24804 21.0766 8.44956C21.936 8.54983 22.6593 8.67205 23.1795 8.81551C23.4346 8.8859 23.6772 8.97098 23.8691 9.08037C23.9649 9.13498 24.0778 9.21219 24.173 9.32156C24.2717 9.43499 24.375 9.61232 24.375 9.84375C24.375 10.0752 24.2717 10.2525 24.173 10.3659C24.0778 10.4753 23.9649 10.5525 23.8691 10.6071C23.6772 10.7165 23.4346 10.8016 23.1795 10.872C22.6593 11.0155 21.936 11.1377 21.0766 11.2379ZM14.375 10.9375C19.5527 10.9375 23.75 10.4478 23.75 9.84375C23.75 9.23969 19.5527 8.75 14.375 8.75C9.19733 8.75 5 9.23969 5 9.84375C5 10.4478 9.19733 10.9375 14.375 10.9375Z" fill="#AC7349"/>
<path fill-rule="evenodd" clip-rule="evenodd" d="M6.875 12.5C7.04759 12.5 7.1875 12.6399 7.1875 12.8125V14.6875C7.1875 14.8601 7.04759 15 6.875 15C6.70241 15 6.5625 14.8601 6.5625 14.6875V12.8125C6.5625 12.6399 6.70241 12.5 6.875 12.5Z" fill="white"/>
<path d="M5 7.78783C5 6.35716 6.17041 5.19737 7.61418 5.19737C7.86288 5.19737 8.10346 5.23178 8.33135 5.29606C8.79057 4.03023 10.0128 3.125 11.4483 3.125C12.8127 3.125 13.9843 3.94265 14.4914 5.11043C14.8358 4.94484 15.2225 4.85197 15.631 4.85197C16.7729 4.85197 17.7438 5.57744 18.0999 6.58861C18.5807 6.63456 19.014 6.84186 19.3438 7.15521C19.7452 6.79698 20.2766 6.57895 20.8594 6.57895C22.1106 6.57895 23.125 7.5841 23.125 8.82401C23.125 9.13 23.0632 9.42169 22.9514 9.6875C22.9514 9.6875 22.1309 10.625 14.3941 10.625C6.6573 10.625 5.83686 9.6875 5.83686 9.6875C5.32213 9.2144 5 8.53839 5 7.78783Z" fill="white"/>
<path d="M10.9375 5C10.9375 5.34518 10.6577 5.625 10.3125 5.625C9.96732 5.625 9.6875 5.34518 9.6875 5C9.6875 4.65482 9.96732 4.375 10.3125 4.375C10.6577 4.375 10.9375 4.65482 10.9375 5Z" fill="#FFE7CB"/>
<path d="M9.0625 6.5625C9.0625 6.90768 8.78268 7.1875 8.4375 7.1875C8.09232 7.1875 7.8125 6.90768 7.8125 6.5625C7.8125 6.21732 8.09232 5.9375 8.4375 5.9375C8.78268 5.9375 9.0625 6.21732 9.0625 6.5625Z" fill="#FFE7CB"/>
<path d="M11.25 9.21875C11.25 9.47763 11.0401 9.6875 10.7812 9.6875C10.5224 9.6875 10.3125 9.47763 10.3125 9.21875C10.3125 8.95987 10.5224 8.75 10.7812 8.75C11.0401 8.75 11.25 8.95987 11.25 9.21875Z" fill="#FFE7CB"/>
<path d="M13.75 6.40625C13.75 6.66513 13.5401 6.875 13.2812 6.875C13.0224 6.875 12.8125 6.66513 12.8125 6.40625C12.8125 6.14737 13.0224 5.9375 13.2812 5.9375C13.5401 5.9375 13.75 6.14737 13.75 6.40625Z" fill="#FFE7CB"/>
<path d="M17.5 9.21875C17.5 9.47763 17.2901 9.6875 17.0312 9.6875C16.7724 9.6875 16.5625 9.47763 16.5625 9.21875C16.5625 8.95987 16.7724 8.75 17.0312 8.75C17.2901 8.75 17.5 8.95987 17.5 9.21875Z" fill="#FFE7CB"/>
<path d="M15.9375 9.375C15.9375 9.72018 15.6577 10 15.3125 10C14.9673 10 14.6875 9.72018 14.6875 9.375C14.6875 9.02982 14.9673 8.75 15.3125 8.75C15.6577 8.75 15.9375 9.02982 15.9375 9.375Z" fill="#FFE7CB"/>
<path d="M19.0625 8.4375C19.0625 8.78268 18.7827 9.0625 18.4375 9.0625C18.0923 9.0625 17.8125 8.78268 17.8125 8.4375C17.8125 8.09232 18.0923 7.8125 18.4375 7.8125C18.7827 7.8125 19.0625 8.09232 19.0625 8.4375Z" fill="#FFE7CB"/>
<path d="M7.1875 7.5C7.1875 7.84518 6.90768 8.125 6.5625 8.125C6.21732 8.125 5.9375 7.84518 5.9375 7.5C5.9375 7.15482 6.21732 6.875 6.5625 6.875C6.90768 6.875 7.1875 7.15482 7.1875 7.5Z" fill="#FFE7CB"/>
<path d="M13.125 5C13.125 5.34518 12.8452 5.625 12.5 5.625C12.1548 5.625 11.875 5.34518 11.875 5C11.875 4.65482 12.1548 4.375 12.5 4.375C12.8452 4.375 13.125 4.65482 13.125 5Z" fill="#FFE7CB"/>
<path d="M13.75 8.90625C13.75 9.33772 13.4002 9.6875 12.9688 9.6875C12.5373 9.6875 12.1875 9.33772 12.1875 8.90625C12.1875 8.47478 12.5373 8.125 12.9688 8.125C13.4002 8.125 13.75 8.47478 13.75 8.90625Z" fill="#FFE7CB"/>
<path d="M12.1875 7.1875C12.1875 7.70527 11.7678 8.125 11.25 8.125C10.7322 8.125 10.3125 7.70527 10.3125 7.1875C10.3125 6.66973 10.7322 6.25 11.25 6.25C11.7678 6.25 12.1875 6.66973 12.1875 7.1875Z" fill="#FFE7CB"/>
<path d="M9.375 8.75C9.375 9.26777 8.95527 9.6875 8.4375 9.6875C7.91973 9.6875 7.5 9.26777 7.5 8.75C7.5 8.23223 7.91973 7.8125 8.4375 7.8125C8.95527 7.8125 9.375 8.23223 9.375 8.75Z" fill="#FFE7CB"/>
<path d="M16.875 7.03125C16.875 7.63531 16.3853 8.125 15.7812 8.125C15.1772 8.125 14.6875 7.63531 14.6875 7.03125C14.6875 6.42719 15.1772 5.9375 15.7812 5.9375C16.3853 5.9375 16.875 6.42719 16.875 7.03125Z" fill="#FFE7CB"/>
<path d="M21.875 8.4375C21.875 8.95527 21.4553 9.375 20.9375 9.375C20.4197 9.375 20 8.95527 20 8.4375C20 7.91973 20.4197 7.5 20.9375 7.5C21.4553 7.5 21.875 7.91973 21.875 8.4375Z" fill="#FFE7CB"/>
<path d="M19.6875 20.4262C19.6875 20.6773 19.484 20.8808 19.233 20.8808C18.9819 20.8808 18.7784 20.6773 18.7784 20.4262C18.7784 20.1752 18.9819 19.9717 19.233 19.9717C19.484 19.9717 19.6875 20.1752 19.6875 20.4262Z" fill="#572908"/>
<path d="M18.3239 19.517C18.3239 19.7681 18.1204 19.9716 17.8693 19.9716C17.6183 19.9716 17.4148 19.7681 17.4148 19.517C17.4148 19.266 17.6183 19.0625 17.8693 19.0625C18.1204 19.0625 18.3239 19.266 18.3239 19.517Z" fill="#572908"/>
<path d="M17.4716 18.267C17.4716 18.5181 17.2681 18.7216 17.017 18.7216C16.766 18.7216 16.5625 18.5181 16.5625 18.267C16.5625 18.016 16.766 17.8125 17.017 17.8125C17.2681 17.8125 17.4716 18.016 17.4716 18.267Z" fill="#572908"/>
<path d="M16.2784 19.7728C16.2784 19.9611 16.1258 20.1137 15.9375 20.1137C15.7492 20.1137 15.5966 19.9611 15.5966 19.7728C15.5966 19.5845 15.7492 19.4319 15.9375 19.4319C16.1258 19.4319 16.2784 19.5845 16.2784 19.7728Z" fill="#572908"/>
<path d="M15.6818 18.4659C15.6818 18.6542 15.5292 18.8068 15.3409 18.8068C15.1526 18.8068 15 18.6542 15 18.4659C15 18.2776 15.1526 18.125 15.3409 18.125C15.5292 18.125 15.6818 18.2776 15.6818 18.4659Z" fill="#572908"/>
<path d="M14.7443 20.3409C14.7443 20.5292 14.5917 20.6818 14.4034 20.6818C14.2151 20.6818 14.0625 20.5292 14.0625 20.3409C14.0625 20.1526 14.2151 20 14.4034 20C14.5917 20 14.7443 20.1526 14.7443 20.3409Z" fill="#572908"/>
<path d="M14.7443 22.5284C14.7443 22.7167 14.5917 22.8693 14.4034 22.8693C14.2151 22.8693 14.0625 22.7167 14.0625 22.5284C14.0625 22.3401 14.2151 22.1875 14.4034 22.1875C14.5917 22.1875 14.7443 22.3401 14.7443 22.5284Z" fill="#572908"/>
<path d="M16.5057 22.6989C16.5057 22.95 16.3022 23.1535 16.0511 23.1535C15.8001 23.1535 15.5966 22.95 15.5966 22.6989C15.5966 22.4479 15.8001 22.2444 16.0511 22.2444C16.3022 22.2444 16.5057 22.4479 16.5057 22.6989Z" fill="#572908"/>
<path d="M15.6818 21.1363C15.6818 21.3246 15.5292 21.4772 15.3409 21.4772C15.1526 21.4772 15 21.3246 15 21.1363C15 20.948 15.1526 20.7954 15.3409 20.7954C15.5292 20.7954 15.6818 20.948 15.6818 21.1363Z" fill="#572908"/>
<path d="M17.8693 21.2215C17.8693 21.5353 17.6149 21.7897 17.3011 21.7897C16.9873 21.7897 16.7329 21.5353 16.7329 21.2215C16.7329 20.9077 16.9873 20.6533 17.3011 20.6533C17.6149 20.6533 17.8693 20.9077 17.8693 21.2215Z" fill="#572908"/>
<path d="M19.8864 18.0682C19.8864 18.382 19.632 18.6364 19.3182 18.6364C19.0044 18.6364 18.75 18.382 18.75 18.0682C18.75 17.7544 19.0044 17.5 19.3182 17.5C19.632 17.5 19.8864 17.7544 19.8864 18.0682Z" fill="#572908"/>
<path d="M19.233 22.017C19.233 22.2681 19.0295 22.4716 18.7784 22.4716C18.5274 22.4716 18.3239 22.2681 18.3239 22.017C18.3239 21.766 18.5274 21.5625 18.7784 21.5625C19.0295 21.5625 19.233 21.766 19.233 22.017Z" fill="#572908"/>
</svg>
