<svg width="64" height="64" viewBox="0 0 64 64" fill="none" xmlns="http://www.w3.org/2000/svg">
<path d="M32.0001 6.40002C20.2235 6.40002 10.667 15.9463 10.667 27.7331C10.667 33.6205 13.0542 38.9543 16.9172 42.8167L32.0001 57.6L47.0875 42.8128C50.9499 38.9549 53.3377 33.6211 53.3332 27.7299C53.3332 15.9565 43.7831 6.40002 32.0001 6.40002ZM44.0731 39.7939L32.0001 51.625L19.9048 39.769C16.7086 36.5754 14.9332 32.2893 14.9332 27.7331C14.9332 18.3232 22.5896 10.6663 32.0001 10.6663C41.4107 10.6663 49.067 18.32 49.067 27.7293C49.0708 32.2893 47.2955 36.5735 44.0731 39.7939Z" fill="#402009"/>
<path d="M31.9999 14.9331C26.6981 14.9331 22.3999 20.6643 22.3999 27.7331C22.3999 34.8019 26.6981 40.5331 31.9999 40.5331C37.3017 40.5331 41.5999 34.8019 41.5999 27.7331C41.5999 20.6643 37.3017 14.9331 31.9999 14.9331ZM31.6793 19.2544C31.7669 22.2937 31.2703 25.3939 30.0332 28.3814C29.2812 30.1958 28.7922 32.1145 28.542 34.0749C27.4457 32.5625 26.6668 30.3667 26.6668 27.7331C26.6668 22.9171 29.2434 19.5334 31.6793 19.2544ZM32.6207 36.1625C32.7084 34.0749 33.1545 32 33.9749 30.0128C35.0373 27.4457 35.6684 24.7795 35.9001 22.0921C36.7519 23.5545 37.333 25.4771 37.333 27.7331C37.333 32.352 34.9625 35.6499 32.6207 36.1625Z" fill="#402009"/>
</svg>
