<svg width="22" height="29" viewBox="0 0 22 29" fill="none" xmlns="http://www.w3.org/2000/svg">
<path d="M9.16667 12.2521C9.16667 13.6054 9.98748 14.7025 11 14.7025C12.0125 14.7025 12.8333 13.6054 12.8333 12.2521C12.8333 10.8988 12.0125 9.80167 11 9.80167C9.98748 9.80167 9.16667 10.8988 9.16667 12.2521Z" fill="#B5E9FF"/>
<path fill-rule="evenodd" clip-rule="evenodd" d="M9.66237 28.5671C7.00961 26.7592 1.24432 22.0526 0.160481 14.7025C-0.742857 8.57646 2.07366 0 11 0C19.9264 0 22.7428 8.57646 21.8395 14.7025C20.7557 22.0526 14.9904 26.7593 12.3376 28.5671C11.4906 29.1443 10.5094 29.1443 9.66237 28.5671ZM7.33333 12.2521C7.33333 14.9587 8.97496 17.1529 11 17.1529C13.025 17.1529 14.6667 14.9587 14.6667 12.2521C14.6667 9.54543 13.025 7.35125 11 7.35125C8.97496 7.35125 7.33333 9.54543 7.33333 12.2521Z" fill="#B5E9FF"/>
</svg>
